{
    "asset" : {
        "generator" : "Khronos glTF Blender I/O v1.3.48",
        "version" : "2.0"
    },
    "scene" : 0,
    "scenes" : [
        {
            "name" : "Scene",
            "nodes" : [
                0,
                1,
                2
            ]
        }
    ],
    "nodes" : [
        {
            "name" : "Light",
            "rotation" : [
                0.30644869804382324,
                0.6265031695365906,
                0.11586322635412216,
                0.7072190642356873
            ],
            "translation" : [
                1.078377366065979,
                3.810163736343384,
                2.4934167861938477
            ]
        },
        {
            "name" : "Camera",
            "rotation" : [
                0.483536034822464,
                0.33687159419059753,
                -0.20870360732078552,
                0.7804827094078064
            ],
            "translation" : [
                7.358891487121582,
                4.958309173583984,
                6.925790786743164
            ]
        },
        {
            "mesh" : 0,
            "name" : "ObjObject",
            "rotation" : [
                0.7071068286895752,
                0,
                0,
                0.7071067094802856
            ],
            "translation" : [
                0.3169766068458557,
                0,
                0
            ]
        }
    ],
    "materials" : [
        {
            "doubleSided" : true,
            "emissiveFactor" : [
                0,
                0,
                0
            ],
            "name" : "palette",
            "pbrMetallicRoughness" : {
                "baseColorTexture" : {
                    "index" : 0,
                    "texCoord" : 0
                },
                "metallicFactor" : 0,
                "roughnessFactor" : 1
            }
        }
    ],
    "meshes" : [
        {
            "name" : "ObjObject",
            "primitives" : [
                {
                    "attributes" : {
                        "POSITION" : 0,
                        "NORMAL" : 1,
                        "TEXCOORD_0" : 2
                    },
                    "indices" : 3,
                    "material" : 0
                }
            ]
        }
    ],
    "textures" : [
        {
            "source" : 0
        }
    ],
    "images" : [
        {
            "bufferView" : 4,
            "mimeType" : "image/png",
            "name" : "astronuat-bake"
        }
    ],
    "accessors" : [
        {
            "bufferView" : 0,
            "componentType" : 5126,
            "count" : 698,
            "max" : [
                0.10000000149011612,
                0.5,
                0
            ],
            "min" : [
                -0.699999988079071,
                -0.4000000059604645,
                -1.399999976158142
            ],
            "type" : "VEC3"
        },
        {
            "bufferView" : 1,
            "componentType" : 5126,
            "count" : 698,
            "type" : "VEC3"
        },
        {
            "bufferView" : 2,
            "componentType" : 5126,
            "count" : 698,
            "type" : "VEC2"
        },
        {
            "bufferView" : 3,
            "componentType" : 5123,
            "count" : 1500,
            "type" : "SCALAR"
        }
    ],
    "bufferViews" : [
        {
            "buffer" : 0,
            "byteLength" : 8376,
            "byteOffset" : 0
        },
        {
            "buffer" : 0,
            "byteLength" : 8376,
            "byteOffset" : 8376
        },
        {
            "buffer" : 0,
            "byteLength" : 5584,
            "byteOffset" : 16752
        },
        {
            "buffer" : 0,
            "byteLength" : 3000,
            "byteOffset" : 22336
        },
        {
            "buffer" : 0,
            "byteLength" : 1211142,
            "byteOffset" : 25336
        }
    ],
    "buffers" : [
        {
            "byteLength" : 1236480,
            "uri" : "data:application/octet-stream;base64,"
        }
    ]
}
