<?xml version="1.0" encoding="UTF-8" standalone="no"?>
<!DOCTYPE svg PUBLIC "-//W3C//DTD SVG 1.1//EN" "http://www.w3.org/Graphics/SVG/1.1/DTD/svg11.dtd">
<!-- Created with Vectornator (http://vectornator.io/) -->
<svg height="100%" stroke-miterlimit="10" style="fill-rule:nonzero;clip-rule:evenodd;stroke-linecap:round;stroke-linejoin:round;" version="1.1" viewBox="0 0 277.265 156.052" width="100%" xml:space="preserve" xmlns="http://www.w3.org/2000/svg" xmlns:vectornator="http://vectornator.io" xmlns:xlink="http://www.w3.org/1999/xlink">
<defs/>
<g id="Layer-2" vectornator:layerName="Layer 2">
<g opacity="1">
<path d="M65.3411 32.2617C60.3699 40.2352 60.7373 72.8928 60.7373 72.8928C60.7373 72.8928 28.3457 113.217 35.6309 128.475C37.2752 131.919 65.2961 130.061 65.2961 130.061C65.2961 130.061 66.5273 150.783 88.9789 150.566C111.431 150.35 109.676 130.623 109.97 130.395C110.264 130.166 174.492 129.916 174.492 129.916C174.492 129.916 178.171 147.002 196.709 146.88C215.246 146.759 219.891 126.849 219.77 126.607C219.649 126.365 247.43 128.188 249.84 122.793C256.326 108.278 221.349 76.1244 221.349 76.1244C221.349 76.1244 220.537 51.2772 214.42 34.1754C208.303 17.0737 179.973 64.2209 179.973 64.2209C179.973 64.2209 159.958 57.4531 143.23 57.5228C124.884 57.5994 98.5032 63.5524 98.5032 63.5524C98.5032 63.5524 69.9766 24.8265 65.3411 32.2617Z" fill="none" opacity="1" stroke="#585756" stroke-linecap="round" stroke-linejoin="round" stroke-width="10"/>
<path d="M142.207 15.2146C123.11 15.6665 118.465 20.9775 118.369 26.3157C118.259 32.4963 125.1 39.4955 142.096 38.9437C159.093 38.3919 166.598 33.646 166.598 26.4721C166.598 21.1331 160.859 14.7731 142.207 15.2146Z" fill="none" opacity="1" stroke="#585756" stroke-linecap="round" stroke-linejoin="round" stroke-width="10"/>
<g opacity="1">
<path d="M262.216 5.80788C262.216 5.80788 257.167 18.1514 247.73 25.9476C237.041 34.7775 234.794 36.7124 234.949 45.3501C235.182 58.2464 243.198 60.4538 247.032 60.2215C255.642 59.6997 256.707 51.7816 256.327 47.7899C256.095 45.3501 253.934 38.2412 247.383 42.031" fill="none" opacity="1" stroke="#585756" stroke-linecap="round" stroke-linejoin="round" stroke-width="10"/>
<path d="M257.024 48.0223C257.024 48.0223 279.099 46.7443 264.46 29.7816C263.912 29.1473 282.468 21.8812 262.252 5.38325" fill="none" opacity="1" stroke="#585756" stroke-linecap="round" stroke-linejoin="round" stroke-width="10"/>
</g>
<g opacity="1">
<path d="M16.6828 8.27917C16.6828 8.27917 21.7314 20.6226 31.169 28.4189C41.8578 37.2488 44.1047 39.1837 43.9491 47.8214C43.7167 60.7177 36.7097 61.8277 32.8757 61.5953C24.2657 61.0735 22.1913 54.2529 22.5715 50.2612C22.8038 47.8214 20.635 36.0872 27.6954 39.8443" fill="none" opacity="1" stroke="#585756" stroke-linecap="round" stroke-linejoin="round" stroke-width="10"/>
<path d="M20.4328 49.3301C20.4328 49.3301 5.43431 48.4618 8.36195 38.6566C8.98605 36.5664 10.4248 34.0701 12.9971 31.0894C13.5445 30.4552-5.01121 23.189 15.2046 6.69107" fill="none" opacity="1" stroke="#585756" stroke-linecap="round" stroke-linejoin="round" stroke-width="10"/>
</g>
<path d="M104.174 91.8747L104.349 102.387" fill="none" opacity="1" stroke="#585756" stroke-linecap="round" stroke-linejoin="round" stroke-width="10"/>
<path d="M173.205 89.9474L173.196 101.013" fill="none" opacity="1" stroke="#585756" stroke-linecap="round" stroke-linejoin="round" stroke-width="10"/>
<path d="M135.386 105.248L144.121 105.19L140.074 110.693L135.386 105.248Z" fill="none" opacity="1" stroke="#585756" stroke-linecap="round" stroke-linejoin="round" stroke-width="10"/>
</g>
</g>
</svg>
