<?xml version="1.0" encoding="UTF-8" standalone="no"?>
<!DOCTYPE svg PUBLIC "-//W3C//DTD SVG 1.1//EN" "http://www.w3.org/Graphics/SVG/1.1/DTD/svg11.dtd">
<!-- Created with Vectornator (http://vectornator.io/) -->
<svg height="100%" stroke-miterlimit="10" style="fill-rule:nonzero;clip-rule:evenodd;stroke-linecap:round;stroke-linejoin:round;" version="1.1" viewBox="0 0 350 350" width="100%" xml:space="preserve" xmlns="http://www.w3.org/2000/svg" xmlns:vectornator="http://vectornator.io" xmlns:xlink="http://www.w3.org/1999/xlink">
<defs/>
<g id="Layer-2" vectornator:layerName="Layer 2">
<g opacity="1">
<path d="M101.613 129.286C96.6419 137.26 97.0089 169.917 97.0089 169.917C97.0089 169.917 64.6172 210.242 71.9024 225.5C73.5467 228.944 101.568 227.085 101.568 227.085C101.568 227.085 102.799 247.807 125.251 247.591C147.702 247.374 145.947 227.647 146.241 227.419C146.536 227.191 210.764 226.94 210.764 226.94C210.764 226.94 214.443 244.026 232.98 243.905C251.518 243.784 256.163 223.874 256.042 223.631C255.92 223.389 283.701 225.212 286.112 219.817C292.597 205.302 257.621 173.149 257.621 173.149C257.621 173.149 256.808 148.302 250.692 131.2C244.575 114.098 216.245 161.245 216.245 161.245C216.245 161.245 196.23 154.477 179.501 154.547C161.155 154.624 134.775 160.577 134.775 160.577C134.775 160.577 106.248 121.851 101.613 129.286Z" fill="none" opacity="1" stroke="#000000" stroke-linecap="round" stroke-linejoin="round" stroke-width="10"/>
<path d="M178.478 112.239C159.382 112.691 154.736 118.002 154.641 123.34C154.53 129.521 161.371 136.52 178.368 135.968C195.365 135.416 202.87 130.67 202.87 123.497C202.87 118.157 197.131 111.797 178.478 112.239Z" fill="none" opacity="1" stroke="#000000" stroke-linecap="round" stroke-linejoin="round" stroke-width="10"/>
<g opacity="1">
<path d="M298.487 102.832C298.487 102.832 293.439 115.176 284.001 122.972C273.312 131.802 271.065 133.737 271.221 142.374C271.453 155.271 279.47 157.478 283.304 157.246C291.914 156.724 292.979 148.806 292.599 144.814C292.366 142.374 290.206 135.266 283.655 139.055" fill="none" opacity="1" stroke="#000000" stroke-linecap="round" stroke-linejoin="round" stroke-width="10"/>
<path d="M293.296 145.047C293.296 145.047 315.37 143.769 300.731 126.806C300.184 126.172 318.74 118.906 298.524 102.408" fill="none" opacity="1" stroke="#000000" stroke-linecap="round" stroke-linejoin="round" stroke-width="10"/>
</g>
<g opacity="1">
<path d="M52.9543 105.304C52.9543 105.304 58.0029 117.647 67.4405 125.443C78.1289 134.273 80.3759 136.208 80.2209 144.846C79.9879 157.742 72.9812 158.852 69.1472 158.62C60.5373 158.098 58.4628 151.277 58.843 147.286C59.0753 144.846 56.9065 133.112 63.9669 136.869" fill="none" opacity="1" stroke="#000000" stroke-linecap="round" stroke-linejoin="round" stroke-width="10"/>
<path d="M56.7043 146.355C56.7043 146.355 41.7058 145.486 44.6335 135.681C45.2576 133.591 46.6963 131.094 49.2686 128.114C49.816 127.48 31.2603 120.213 51.4761 103.715" fill="none" opacity="1" stroke="#000000" stroke-linecap="round" stroke-linejoin="round" stroke-width="10"/>
</g>
<path d="M140.446 188.899L140.621 199.411" fill="none" opacity="1" stroke="#000000" stroke-linecap="round" stroke-linejoin="round" stroke-width="10"/>
<path d="M209.477 186.972L209.468 198.037" fill="none" opacity="1" stroke="#000000" stroke-linecap="round" stroke-linejoin="round" stroke-width="10"/>
<path d="M171.657 202.272L180.393 202.215L176.346 207.717L171.657 202.272Z" fill="none" opacity="1" stroke="#000000" stroke-linecap="round" stroke-linejoin="round" stroke-width="10"/>
</g>
</g>
</svg>
