<?xml version="1.0" encoding="UTF-8" standalone="no"?>
<!DOCTYPE svg PUBLIC "-//W3C//DTD SVG 1.1//EN" "http://www.w3.org/Graphics/SVG/1.1/DTD/svg11.dtd">
<!-- Created with Vectornator (http://vectornator.io/) -->
<svg height="100%" stroke-miterlimit="10" style="fill-rule:nonzero;clip-rule:evenodd;stroke-linecap:round;stroke-linejoin:round;" version="1.1" viewBox="0 0 316.337 144.667" width="100%" xml:space="preserve" xmlns="http://www.w3.org/2000/svg" xmlns:vectornator="http://vectornator.io" xmlns:xlink="http://www.w3.org/1999/xlink">
<defs/>
<g id="Layer-3" vectornator:layerName="Layer 3">
<g opacity="1">
<path d="M79.6693 20.5343C74.6982 28.5079 75.0656 61.1655 75.0656 61.1655C75.0656 61.1655 42.6739 101.49 49.9591 116.748C51.6035 120.192 79.6244 118.333 79.6244 118.333C79.6244 118.333 80.8556 139.056 103.307 138.839C125.759 138.622 124.004 118.896 124.298 118.667C124.592 118.439 188.82 118.188 188.82 118.188C188.82 118.188 192.499 135.274 211.037 135.153C229.574 135.032 234.219 115.122 234.098 114.88C233.977 114.637 261.758 116.461 264.168 111.066C270.654 96.5506 235.677 64.3971 235.677 64.3971C235.677 64.3971 234.865 39.5498 228.748 22.4481C222.632 5.34632 194.301 52.4935 194.301 52.4935C194.301 52.4935 174.286 45.7257 157.558 45.7955C139.212 45.872 112.831 51.8251 112.831 51.8251C112.831 51.8251 84.3049 13.0991 79.6693 20.5343Z" fill="#000000" fill-rule="nonzero" opacity="1" stroke="#000000" stroke-linecap="round" stroke-linejoin="round" stroke-width="10"/>
<path d="M118.502 80.1473L118.678 90.6597" fill="none" opacity="1" stroke="#fffcfc" stroke-linecap="round" stroke-linejoin="round" stroke-width="10"/>
<path d="M187.534 78.22L187.524 89.2857" fill="none" opacity="1" stroke="#ffffff" stroke-linecap="round" stroke-linejoin="round" stroke-width="10"/>
<path d="M149.714 93.5205L158.449 93.463L154.402 98.9652L149.714 93.5205Z" fill="none" opacity="1" stroke="#fffcfc" stroke-linecap="round" stroke-linejoin="round" stroke-width="10"/>
<path d="M121.655 12.8545C119.294 13.5554 118.428 28.8825 122.983 34.2502C127.114 39.1196 137.886 33.3649 134.787 31.004C130.351 27.6237 124.016 12.1536 121.655 12.8545Z" fill="#000000" fill-rule="nonzero" opacity="1" stroke="#000000" stroke-linecap="round" stroke-linejoin="round" stroke-width="2.06347"/>
<path d="M187.265 12.8545C189.626 13.5554 190.492 28.8825 185.937 34.2502C181.806 39.1196 171.034 33.3649 174.133 31.004C178.569 27.6237 184.904 12.1536 187.265 12.8545Z" fill="#000000" fill-rule="nonzero" opacity="1" stroke="#000000" stroke-linecap="round" stroke-linejoin="round" stroke-width="2.06347"/>
<path d="M275.133 3.93322C275.133 3.93322 273.873 14.773 267.776 26.3424C263.179 35.067 256.963 41.0834 256.963 41.0834C256.963 41.0834 269.737 32.6657 278.611 33.2984C287.484 33.9311 293.458 43.4007 293.458 43.4007C293.458 43.4007 298.4 39.5358 298.417 34.5694C298.434 29.603 294.054 23.2505 294.054 23.2505C294.054 23.2505 299.399 23.5667 304.283 26.9648C309.167 30.3628 313.59 36.8427 313.59 36.8427C313.59 36.8427 320.343 20.8875 300.303 6.61385C290.136-0.628001 275.133 3.93322 275.133 3.93322Z" fill="#000000" fill-rule="nonzero" opacity="1" stroke="#000000" stroke-linecap="round" stroke-linejoin="round" stroke-width="2.06347"/>
<path d="M41.358 3.19989C41.358 3.19989 42.6186 14.0396 48.7151 25.6091C53.3124 34.3337 59.5285 40.35 59.5285 40.35C59.5285 40.35 46.7539 31.9324 37.8803 32.5651C29.0068 33.1978 23.0329 42.6673 23.0329 42.6673C23.0329 42.6673 18.0908 38.8025 18.0738 33.8361C18.0568 28.8697 22.4375 22.5172 22.4375 22.5172C22.4375 22.5172 17.0918 22.8334 12.2078 26.2314C7.32385 29.6295 2.90164 36.1094 2.90164 36.1094C2.90164 36.1094-3.85198 20.1542 16.1878 5.88052C26.3551-1.36133 41.358 3.19989 41.358 3.19989Z" fill="#000000" fill-rule="nonzero" opacity="1" stroke="#000000" stroke-linecap="round" stroke-linejoin="round" stroke-width="2.06347"/>
</g>
</g>
</svg>
