<?xml version="1.0" encoding="UTF-8" standalone="no"?>
<!DOCTYPE svg PUBLIC "-//W3C//DTD SVG 1.1//EN" "http://www.w3.org/Graphics/SVG/1.1/DTD/svg11.dtd">
<!-- Created with Vectornator (http://vectornator.io/) -->
<svg height="100%" stroke-miterlimit="10" style="fill-rule:nonzero;clip-rule:evenodd;stroke-linecap:round;stroke-linejoin:round;" version="1.1" viewBox="0 0 275.833 155.695" width="100%" xml:space="preserve" xmlns="http://www.w3.org/2000/svg" xmlns:vectornator="http://vectornator.io" xmlns:xlink="http://www.w3.org/1999/xlink">
<defs/>
<clipPath id="ArtboardFrame">
<rect height="155.695" width="275.833" x="0" y="0"/>
</clipPath>
<g clip-path="url(#ArtboardFrame)" id="Layer-2" vectornator:layerName="Layer 2">
<g opacity="1">
<path d="M64.3385 32.0612C59.3673 40.0347 59.7347 72.6923 59.7347 72.6923C59.7347 72.6923 27.3431 113.017 34.6283 128.275C36.2726 131.719 64.2936 129.86 64.2936 129.86C64.2936 129.86 65.5247 150.582 87.9764 150.366C110.428 150.149 108.673 130.422 108.967 130.194C109.261 129.966 173.49 129.715 173.49 129.715C173.49 129.715 177.169 146.801 195.706 146.68C214.243 146.559 218.889 126.649 218.767 126.406C218.646 126.164 246.427 127.988 248.838 122.592C255.323 108.077 220.347 75.9239 220.347 75.9239C220.347 75.9239 219.534 51.0766 213.418 33.9749C207.301 16.8732 178.971 64.0204 178.971 64.0204C178.971 64.0204 158.956 57.2526 142.227 57.3223C123.881 57.3988 97.5006 63.3519 97.5006 63.3519C97.5006 63.3519 68.974 24.6259 64.3385 32.0612Z" fill="none" opacity="1" stroke="#000000" stroke-linecap="round" stroke-linejoin="round" stroke-width="10"/>
<path d="M141.204 15.014C122.108 15.466 117.462 20.777 117.367 26.1151C117.256 32.2958 124.097 39.295 141.094 38.7432C158.09 38.1914 165.595 33.4455 165.595 26.2716C165.595 20.9326 159.856 14.5726 141.204 15.014Z" fill="none" opacity="1" stroke="#000000" stroke-linecap="round" stroke-linejoin="round" stroke-width="10"/>
<g opacity="1">
<path d="M261.213 5.60736C261.213 5.60736 256.164 17.9508 246.727 25.7471C236.038 34.577 233.791 36.5119 233.947 45.1496C234.179 58.0459 242.196 60.2533 246.03 60.021C254.64 59.4991 255.705 51.5811 255.324 47.5894C255.092 45.1496 252.931 38.0407 246.381 41.8304" fill="none" opacity="1" stroke="#000000" stroke-linecap="round" stroke-linejoin="round" stroke-width="10"/>
<path d="M256.022 47.8218C256.022 47.8218 278.096 46.5438 263.457 29.5811C262.91 28.9468 281.466 21.6807 261.25 5.18273" fill="none" opacity="1" stroke="#000000" stroke-linecap="round" stroke-linejoin="round" stroke-width="10"/>
</g>
<g opacity="1">
<path d="M15.6802 8.07865C15.6802 8.07865 20.7289 20.4221 30.1664 28.2184C40.8552 37.0482 43.1021 38.9832 42.9465 47.6209C42.7141 60.5171 35.7071 61.6272 31.8731 61.3948C23.2632 60.873 21.1887 54.0524 21.5689 50.0607C21.8012 47.6209 19.6324 35.8867 26.6928 39.6438" fill="none" opacity="1" stroke="#000000" stroke-linecap="round" stroke-linejoin="round" stroke-width="10"/>
<path d="M19.4302 49.1296C19.4302 49.1296 4.43173 48.2613 7.35937 38.4561C7.98347 36.3659 9.4222 33.8696 11.9945 30.8889C12.5419 30.2547-6.01378 22.9885 14.202 6.49056" fill="none" opacity="1" stroke="#000000" stroke-linecap="round" stroke-linejoin="round" stroke-width="10"/>
</g>
<path d="M103.171 91.6741L103.347 102.187" fill="none" opacity="1" stroke="#000000" stroke-linecap="round" stroke-linejoin="round" stroke-width="10"/>
<path d="M172.203 89.7469L172.194 100.813" fill="none" opacity="1" stroke="#000000" stroke-linecap="round" stroke-linejoin="round" stroke-width="10"/>
<path d="M134.383 105.047L143.119 104.99L139.071 110.492L134.383 105.047Z" fill="none" opacity="1" stroke="#000000" stroke-linecap="round" stroke-linejoin="round" stroke-width="10"/>
</g>
</g>
</svg>
