<?xml version="1.0" encoding="UTF-8" standalone="no"?>
<!DOCTYPE svg PUBLIC "-//W3C//DTD SVG 1.1//EN" "http://www.w3.org/Graphics/SVG/1.1/DTD/svg11.dtd">
<!-- Created with Vectornator (http://vectornator.io/) -->
<svg height="100%" stroke-miterlimit="10" style="fill-rule:nonzero;clip-rule:evenodd;stroke-linecap:round;stroke-linejoin:round;" version="1.1" viewBox="0 0 350 350" width="100%" xml:space="preserve" xmlns="http://www.w3.org/2000/svg" xmlns:vectornator="http://vectornator.io" xmlns:xlink="http://www.w3.org/1999/xlink">
<defs/>
<g id="Layer-3" vectornator:layerName="Layer 3">
<g opacity="1">
<path d="M96.4232 125.223C91.4522 133.197 91.8202 165.854 91.8202 165.854C91.8202 165.854 59.4282 206.179 66.7134 221.437C68.3578 224.881 96.3782 223.022 96.3782 223.022C96.3782 223.022 97.6102 243.744 120.061 243.528C142.513 243.311 140.758 223.584 141.052 223.356C141.346 223.128 205.575 222.877 205.575 222.877C205.575 222.877 209.254 239.963 227.791 239.842C246.328 239.721 250.973 219.811 250.852 219.568C250.731 219.326 278.512 221.149 280.923 215.754C287.408 201.239 252.431 169.086 252.431 169.086C252.431 169.086 251.619 144.239 245.502 127.137C239.386 110.035 211.055 157.182 211.055 157.182C211.055 157.182 191.04 150.414 174.312 150.484C155.966 150.561 129.586 156.514 129.586 156.514C129.586 156.514 101.059 117.788 96.4232 125.223Z" fill="#000000" fill-rule="nonzero" opacity="1" stroke="#000000" stroke-linecap="round" stroke-linejoin="round" stroke-width="10"/>
<path d="M135.256 184.836L135.432 195.348" fill="none" opacity="1" stroke="#fffcfc" stroke-linecap="round" stroke-linejoin="round" stroke-width="10"/>
<path d="M204.288 182.909L204.278 193.974" fill="none" opacity="1" stroke="#ffffff" stroke-linecap="round" stroke-linejoin="round" stroke-width="10"/>
<path d="M166.468 198.209L175.203 198.152L171.156 203.654L166.468 198.209Z" fill="none" opacity="1" stroke="#fffcfc" stroke-linecap="round" stroke-linejoin="round" stroke-width="10"/>
<path d="M138.409 117.543C136.048 118.244 135.182 133.571 139.737 138.939C143.868 143.808 154.64 138.054 151.541 135.693C147.105 132.312 140.77 116.842 138.409 117.543Z" fill="#000000" fill-rule="nonzero" opacity="1" stroke="#000000" stroke-linecap="round" stroke-linejoin="round" stroke-width="2.06347"/>
<path d="M204.019 117.543C206.38 118.244 207.246 133.571 202.691 138.939C198.56 143.808 187.788 138.054 190.887 135.693C195.323 132.312 201.659 116.842 204.019 117.543Z" fill="#000000" fill-rule="nonzero" opacity="1" stroke="#000000" stroke-linecap="round" stroke-linejoin="round" stroke-width="2.06347"/>
<path d="M291.887 108.622C291.887 108.622 290.627 119.462 284.53 131.031C279.933 139.756 273.717 145.772 273.717 145.772C273.717 145.772 286.491 137.354 295.365 137.987C304.239 138.62 310.212 148.089 310.212 148.089C310.212 148.089 315.155 144.225 315.171 139.258C315.188 134.292 310.808 127.939 310.808 127.939C310.808 127.939 316.154 128.255 321.037 131.654C325.921 135.052 330.344 141.531 330.344 141.531C330.344 141.531 337.097 125.576 317.058 111.303C306.89 104.061 291.887 108.622 291.887 108.622Z" fill="#000000" fill-rule="nonzero" opacity="1" stroke="#000000" stroke-linecap="round" stroke-linejoin="round" stroke-width="2.06347"/>
<path d="M58.1123 107.889C58.1123 107.889 59.3729 118.728 65.4694 130.298C70.0667 139.022 76.2832 145.039 76.2832 145.039C76.2832 145.039 63.5082 136.621 54.6346 137.254C45.7611 137.887 39.7872 147.356 39.7872 147.356C39.7872 147.356 34.8451 143.491 34.8281 138.525C34.8111 133.558 39.1918 127.206 39.1918 127.206C39.1918 127.206 33.8461 127.522 28.9621 130.92C24.0781 134.318 19.6559 140.798 19.6559 140.798C19.6559 140.798 12.9023 124.843 32.9421 110.569C43.1094 103.327 58.1123 107.889 58.1123 107.889Z" fill="#000000" fill-rule="nonzero" opacity="1" stroke="#000000" stroke-linecap="round" stroke-linejoin="round" stroke-width="2.06347"/>
</g>
</g>
</svg>
