<?xml version="1.0" standalone="no"?>
<!DOCTYPE svg PUBLIC "-//W3C//DTD SVG 20010904//EN"
 "http://www.w3.org/TR/2001/REC-SVG-20010904/DTD/svg10.dtd">
<svg version="1.0" xmlns="http://www.w3.org/2000/svg"
 width="700.000000pt" height="700.000000pt" viewBox="0 0 700.000000 700.000000"
 preserveAspectRatio="xMidYMid meet">
<metadata>
Created by potrace 1.14, written by Peter Selinger 2001-2017
</metadata>
<g transform="translate(0.000000,700.000000) scale(0.100000,-0.100000)"
fill="#000000" stroke="none">
<path d="M821 4878 c-172 -31 -382 -225 -447 -413 -32 -93 -24 -285 13 -299 7
-3 38 26 70 67 72 88 152 151 223 176 30 11 56 18 58 16 2 -1 -5 -18 -16 -36
-17 -32 -40 -101 -46 -144 -8 -53 49 -167 102 -201 25 -16 26 -16 46 12 39 54
113 119 169 147 79 40 152 40 273 -2 84 -28 181 -74 229 -107 11 -8 25 -14 31
-14 28 0 18 29 -28 80 -68 75 -150 200 -198 303 -39 83 -95 249 -105 311 -13
79 -16 86 -43 92 -15 3 -47 10 -71 15 -49 11 -193 10 -260 -3z"/>
<path d="M5910 4864 c-77 -13 -100 -29 -100 -68 0 -40 -51 -212 -91 -304 -59
-140 -137 -260 -233 -366 -28 -30 -34 -42 -25 -52 10 -12 17 -11 43 5 30 18
128 67 191 97 53 25 168 46 217 40 79 -9 150 -50 221 -127 36 -38 69 -69 74
-69 15 0 70 63 92 105 35 68 28 153 -21 249 l-20 39 29 -7 c60 -15 135 -62
195 -123 85 -88 83 -85 97 -111 34 -63 72 21 67 146 -6 141 -64 262 -181 377
-129 126 -234 175 -389 179 -50 1 -125 -3 -166 -10z"/>
<path d="M2748 4658 c-23 -18 -35 -69 -37 -159 -4 -143 33 -269 90 -310 56
-39 160 -29 222 22 42 35 48 66 16 95 -20 18 -129 177 -129 188 0 11 -73 122
-98 149 -29 30 -41 33 -64 15z"/>
<path d="M4038 4646 c-13 -14 -58 -82 -101 -153 -42 -70 -94 -150 -117 -177
-40 -48 -40 -48 -23 -77 37 -62 156 -92 230 -59 32 14 46 29 67 72 35 72 38
85 41 211 6 175 -33 247 -97 183z"/>
<path d="M4748 4615 c-68 -26 -187 -123 -263 -215 -92 -112 -145 -183 -221
-296 l-89 -130 -60 18 c-60 18 -257 61 -327 72 -118 18 -157 21 -303 21 -156
0 -249 -6 -390 -26 -38 -5 -83 -11 -100 -13 -35 -5 -248 -42 -315 -56 -25 -4
-48 -5 -51 -2 -4 4 -61 76 -129 160 -140 176 -334 376 -404 417 -74 43 -112
54 -160 43 -103 -23 -150 -136 -181 -438 -4 -42 -13 -219 -19 -385 l-2 -70
-84 -115 c-190 -260 -354 -557 -406 -735 -46 -159 -34 -314 29 -372 50 -46
107 -56 347 -59 l225 -4 27 -66 c62 -153 160 -247 314 -301 98 -33 261 -41
363 -17 182 43 312 169 353 342 l12 47 275 2 c509 3 816 5 833 4 10 -1 27 -19
39 -43 46 -91 132 -180 219 -227 160 -85 358 -89 518 -9 111 55 229 187 281
314 l12 31 143 1 c79 1 156 3 172 6 16 3 54 8 84 11 166 20 243 99 242 246 -1
191 -176 473 -493 799 -82 85 -93 99 -95 135 -21 330 -93 701 -160 825 -13 25
-40 56 -60 69 -43 30 -122 37 -176 16z"/>
</g>
</svg>
